<svg xmlns="http://www.w3.org/2000/svg" viewBox="0 0 36 36"><path fill="#EFEFEF" d="M27.417 3.914C20.502 4.043 15.685.549 12.353.612S2.057 2.721 2.344 18.052s9.744 17.404 13.41 17.336c17.163-.321 23.911-31.703 11.663-31.474z"/><path fill="#A4AFC1" d="M6.165 7.766 7.58 6.35l.707.707-1.415 1.415zM2.1 11.833l1.414-1.415.707.707-1.415 1.415zM2.1 6.881l.706-.707L4.221 7.59l-.707.707zM28.518 30.204c-.827 0-1.5-.673-1.5-1.5s.673-1.5 1.5-1.5 1.5.673 1.5 1.5-.673 1.5-1.5 1.5zm0-2c-.275 0-.5.225-.5.5s.225.5.5.5.5-.225.5-.5-.225-.5-.5-.5z"/><path fill="#2FDF84" d="M8.408 25.25h19.183a1.65 1.65 0 0 0 1.658-1.64V12.39a1.65 1.65 0 0 0-1.658-1.64H8.408a1.65 1.65 0 0 0-1.658 1.64v11.22c0 .904.744 1.64 1.658 1.64z"/><path fill="#00B871" d="M9 23.61V12.39c0-.905.744-1.64 1.658-1.64h-2.25a1.65 1.65 0 0 0-1.658 1.64v11.22c0 .905.744 1.64 1.658 1.64h2.25A1.651 1.651 0 0 1 9 23.61z"/><path d="M27.592 26H8.408A2.402 2.402 0 0 1 6 23.609V12.391A2.402 2.402 0 0 1 8.408 10h19.184A2.402 2.402 0 0 1 30 12.391V23.61c0 1.318-1.08 2.39-2.408 2.39zM8.408 11.5a.9.9 0 0 0-.908.891V23.61a.9.9 0 0 0 .908.891h19.184a.9.9 0 0 0 .908-.891V12.391a.9.9 0 0 0-.908-.891H8.408z"/><path d="M23.527 22a.75.75 0 0 1-.502-.192l-2.777-2.5 1.004-1.115 2.271 2.044 2.221-2.039 1.014 1.105-2.723 2.5a.752.752 0 0 1-.508.197zM18 21.25h-1.5v-4.546l-2.442 2.715a.774.774 0 0 1-1.115 0L10.5 16.704v4.546H9v-6.5a.749.749 0 0 1 1.307-.502l3.192 3.548 3.192-3.548a.748.748 0 0 1 1.307.502v6.5z"/><path d="M22.75 14.75h1.5v6.5h-1.5z"/></svg>